<svg xmlns="http://www.w3.org/2000/svg" viewBox="0 0 53.01 38.88"><defs><style>.cls-1,.cls-2{fill:none;stroke:#e25a1c;stroke-miterlimit:10;stroke-width:0.75px;}.cls-1{stroke-linecap:round;}</style></defs><g id="Layer_15" data-name="Layer 15"><line class="cls-1" x1="6" y1="11.5" x2="12.22" y2="11.5"/></g><g id="white"><circle class="cls-2" cx="45.89" cy="11.5" r="1.31"/><circle class="cls-2" cx="26.5" cy="22.83" r="10.45"/></g><g id="camera_base" data-name="camera base"><rect class="cls-2" x="0.38" y="7.15" width="52.26" height="31.35" rx="3"/><path class="cls-2" d="M24.82.38h3.37A5.59,5.59,0,0,1,33.78,6V7a0,0,0,0,1,0,0H19.23a0,0,0,0,1,0,0V6A5.59,5.59,0,0,1,24.82.38Z"/><path class="cls-2" d="M8.69,3.93h.84A1.48,1.48,0,0,1,11,5.41V7a0,0,0,0,1,0,0H7.21a0,0,0,0,1,0,0V5.41A1.48,1.48,0,0,1,8.69,3.93Z"/></g></svg>