<svg id="Layer_1" data-name="Layer 1" xmlns="http://www.w3.org/2000/svg" viewBox="0 0 324.4 250.02"><defs><style>.cls-1,.cls-2{fill:none;stroke:#e25a1c;stroke-miterlimit:10;stroke-width:0.75px;}.cls-2{stroke-linecap:round;}</style></defs><rect class="cls-1" x="136.07" y="115.6" width="52.26" height="31.35" rx="3"/><path class="cls-1" d="M160.51,108.83h3.37a5.59,5.59,0,0,1,5.59,5.59v1.06a0,0,0,0,1,0,0H154.92a0,0,0,0,1,0,0v-1.06A5.59,5.59,0,0,1,160.51,108.83Z"/><path class="cls-1" d="M144.39,112.39h.84a1.48,1.48,0,0,1,1.48,1.48v1.62a0,0,0,0,1,0,0H142.9a0,0,0,0,1,0,0v-1.62A1.48,1.48,0,0,1,144.39,112.39Z"/><circle class="cls-1" cx="162.2" cy="131.28" r="10.45"/><line class="cls-2" x1="141.7" y1="119.96" x2="147.92" y2="119.96"/><circle class="cls-1" cx="181.58" cy="119.96" r="1.31"/><circle class="cls-1" cx="162.2" cy="131.28" r="10.45"/></svg>