<svg id="Layer_1" data-name="Layer 1" xmlns="http://www.w3.org/2000/svg" viewBox="0 0 324.4 250.02"><defs><style>.cls-1{fill:none;stroke:#e25a1c;stroke-miterlimit:10;stroke-width:0.75px;}.cls-2{fill:#e25a1c;}</style></defs><rect class="cls-1" x="145.38" y="143.49" width="3.35" height="2.13"/><rect class="cls-1" x="156.79" y="143.49" width="3.35" height="2.13"/><path class="cls-2" d="M159.2,107a2.25,2.25,0,0,1,2.25,2.25v31.36a2.25,2.25,0,0,1-2.25,2.25H146.52a2.25,2.25,0,0,1-2.25-2.25V109.28a2.25,2.25,0,0,1,2.25-2.25H159.2m0-.75H146.52a3,3,0,0,0-3,3v31.36a3,3,0,0,0,3,3H159.2a3,3,0,0,0,3-3V109.28a3,3,0,0,0-3-3Z"/><path class="cls-2" d="M152.86,137.57a.74.74,0,0,1,.74.74.75.75,0,0,1-.74.75.76.76,0,0,1-.75-.75.75.75,0,0,1,.75-.74m0-.75a1.5,1.5,0,1,0,1.49,1.49,1.5,1.5,0,0,0-1.49-1.49Z"/><path class="cls-2" d="M157.46,109.22a.25.25,0,0,1,.25.25v.62a.25.25,0,0,1-.25.25h-9.21a.25.25,0,0,1-.25-.25v-.62a.25.25,0,0,1,.25-.25h9.21m0-.75h-9.21a1,1,0,0,0-1,1v.62a1,1,0,0,0,1,1h9.21a1,1,0,0,0,1-1v-.62a1,1,0,0,0-1-1Z"/><path class="cls-2" d="M157.46,113.29a.25.25,0,0,1,.25.25v.61a.25.25,0,0,1-.25.25h-9.21a.25.25,0,0,1-.25-.25v-.61a.25.25,0,0,1,.25-.25h9.21m0-.75h-9.21a1,1,0,0,0-1,1v.61a1,1,0,0,0,1,1h9.21a1,1,0,0,0,1-1v-.61a1,1,0,0,0-1-1Z"/></svg>