<svg xmlns="http://www.w3.org/2000/svg" viewBox="0 0 18.68 39.72"><defs><style>.cls-1{fill:none;stroke:#e25a1c;stroke-miterlimit:10;stroke-width:0.75px;}.cls-2{fill:#e25a1c;}</style></defs><g id="feet"><rect class="cls-1" x="13.27" y="37.21" width="3.35" height="2.13"/><rect class="cls-1" x="1.87" y="37.21" width="3.35" height="2.13"/></g><g id="air"><path class="cls-2" d="M14,2.94a.26.26,0,0,1,.25.25v.62a.25.25,0,0,1-.25.25H4.74a.25.25,0,0,1-.25-.25V3.19a.25.25,0,0,1,.25-.25H14m0-.75H4.74a1,1,0,0,0-1,1v.62a1,1,0,0,0,1,1H14a1,1,0,0,0,1-1V3.19a1,1,0,0,0-1-1Z"/><path class="cls-2" d="M14,7a.25.25,0,0,1,.25.25v.61a.25.25,0,0,1-.25.25H4.74a.25.25,0,0,1-.25-.25V7.26A.25.25,0,0,1,4.74,7H14m0-.75H4.74a1,1,0,0,0-1,1v.61a1,1,0,0,0,1,1H14a1,1,0,0,0,1-1V7.26a1,1,0,0,0-1-1Z"/><path class="cls-2" d="M9.34,31.29a.75.75,0,0,1,.75.74.76.76,0,0,1-.75.75A.75.75,0,0,1,8.6,32a.74.74,0,0,1,.74-.74m0-.75A1.5,1.5,0,1,0,10.84,32a1.49,1.49,0,0,0-1.5-1.49Z"/></g><g id="Tall_tower" data-name="Tall tower"><path class="cls-2" d="M15.68.75A2.25,2.25,0,0,1,17.93,3V34.36a2.25,2.25,0,0,1-2.25,2.25H3A2.25,2.25,0,0,1,.75,34.36V3A2.25,2.25,0,0,1,3,.75H15.68m0-.75H3A3,3,0,0,0,0,3V34.36a3,3,0,0,0,3,3H15.68a3,3,0,0,0,3-3V3a3,3,0,0,0-3-3Z"/></g></svg>