<svg xmlns="http://www.w3.org/2000/svg" viewBox="0 0 39.19 39.19"><defs><style>.cls-1{fill:none;stroke:#e25a1c;stroke-miterlimit:10;stroke-width:0.75px;}</style></defs><g id="headphones"><path class="cls-1" d="M19.59.38C9,.38.38,9.78.38,21.34V31a.88.88,0,0,0,.87.88H3.87v3.49a3.49,3.49,0,0,0,3.49,3.49H10a.87.87,0,0,0,.88-.87V22.22a.87.87,0,0,0-.88-.88H7.36a3.5,3.5,0,0,0-3.49,3.5v-3.5c0-9.63,7.05-17.47,15.72-17.47s15.73,7.84,15.73,17.47v3.5a3.5,3.5,0,0,0-3.49-3.5H29.2a.87.87,0,0,0-.87.88V37.94a.87.87,0,0,0,.87.87h2.63a3.49,3.49,0,0,0,3.49-3.49V31.83h2.62a.88.88,0,0,0,.87-.88V21.34C38.81,9.78,30.19.38,19.59.38Z"/></g></svg>