<svg id="Layer_1" data-name="Layer 1" xmlns="http://www.w3.org/2000/svg" viewBox="0 0 324.4 250.02"><defs><style>.cls-1{fill:none;stroke:#e25a1c;stroke-miterlimit:10;stroke-width:0.75px;}</style></defs><path class="cls-1" d="M162.2,105.79c-10.6,0-19.22,9.41-19.22,21v9.61a.87.87,0,0,0,.87.87h2.62v3.5a3.5,3.5,0,0,0,3.5,3.49h2.62a.87.87,0,0,0,.87-.87V127.63a.87.87,0,0,0-.87-.87H150a3.5,3.5,0,0,0-3.5,3.49v-3.49c0-9.64,7.06-17.47,15.73-17.47s15.72,7.83,15.72,17.47v3.49a3.49,3.49,0,0,0-3.49-3.49h-2.62a.87.87,0,0,0-.88.87v15.73a.87.87,0,0,0,.88.87h2.62a3.49,3.49,0,0,0,3.49-3.49v-3.5h2.62a.87.87,0,0,0,.88-.87v-9.61C181.42,115.2,172.8,105.79,162.2,105.79Z"/></svg>