<?xml version="1.0" encoding="utf-8"?>
<!-- Generator: Adobe Illustrator 25.1.0, SVG Export Plug-In . SVG Version: 6.00 Build 0)  -->
<svg version="1.1" xmlns="http://www.w3.org/2000/svg" xmlns:xlink="http://www.w3.org/1999/xlink" x="0px" y="0px"
	 viewBox="0 0 120.23 39.35" style="enable-background:new 0 0 120.23 39.35;" xml:space="preserve">
<style type="text/css">
	.st0{fill:#E25A1C;}
	.st1{fill:#E25A1C;}
	.st2{fill:#E25A1C;}
	.st3{fill:none;}
</style>
<g id="Layer_1">
	<rect x="21.59" y="32.25" class="st0" width="31.55" height="3.69"/>
	<rect x="97.14" y="26.48" class="st0" width="3.69" height="3.69"/>
	<g>
		<rect x="91.27" y="32.25" class="st0" width="3.69" height="3.69"/>
		<rect x="85.83" y="32.25" class="st0" width="3.69" height="3.69"/>
		<rect x="85.84" y="26.48" class="st0" width="3.69" height="3.69"/>
		<rect x="80.39" y="32.25" class="st0" width="3.69" height="3.69"/>
	</g>
	<rect x="97.14" y="32.25" class="st0" width="9.04" height="3.69"/>
	<rect x="102.49" y="26.48" class="st0" width="3.69" height="3.69"/>
	<rect x="107.92" y="26.48" class="st0" width="3.69" height="3.69"/>
	<rect x="107.92" y="32.25" class="st0" width="3.69" height="3.69"/>
	<rect x="113.4" y="26.48" class="st0" width="3.69" height="9.46"/>
	<rect x="113.4" y="14.95" class="st0" width="3.69" height="9.46"/>
	<rect x="97.14" y="20.72" class="st0" width="3.69" height="3.69"/>
	<rect x="102.49" y="20.72" class="st0" width="3.69" height="3.69"/>
	<rect x="107.92" y="20.72" class="st0" width="3.69" height="3.69"/>
	<rect x="97.14" y="14.95" class="st0" width="3.69" height="3.69"/>
	<rect x="102.49" y="14.95" class="st0" width="3.69" height="3.69"/>
	<rect x="107.92" y="14.95" class="st0" width="3.69" height="3.69"/>
	<rect x="97.14" y="9.18" class="st0" width="3.69" height="3.69"/>
	<rect x="102.49" y="9.18" class="st0" width="3.69" height="3.69"/>
	<rect x="107.92" y="9.18" class="st0" width="3.69" height="3.69"/>
	<rect x="80.44" y="14.95" class="st0" width="3.69" height="3.69"/>
	<rect x="85.79" y="14.95" class="st0" width="3.69" height="3.69"/>
	<rect x="91.22" y="14.95" class="st0" width="3.69" height="3.69"/>
	<rect x="80.44" y="9.18" class="st0" width="3.69" height="3.69"/>
	<rect x="85.79" y="9.18" class="st0" width="3.69" height="3.69"/>
	<rect x="91.22" y="9.18" class="st0" width="3.69" height="3.69"/>
	<rect x="80.44" y="3.02" class="st0" width="3.69" height="3.69"/>
	<rect x="85.79" y="3.02" class="st0" width="3.69" height="3.69"/>
	<rect x="91.22" y="3.02" class="st0" width="3.69" height="3.69"/>
	<rect x="62.96" y="3.02" class="st0" width="3.69" height="3.69"/>
	<rect x="68.31" y="3.02" class="st0" width="3.69" height="3.69"/>
	<rect x="73.77" y="3.02" class="st0" width="3.69" height="3.69"/>
	<rect x="72" y="9.18" class="st0" width="5.46" height="3.69"/>
	<rect x="57.39" y="3.02" class="st0" width="3.69" height="3.69"/>
	<rect x="39.7" y="3.02" class="st0" width="3.69" height="3.69"/>
	<rect x="45.05" y="3.02" class="st0" width="3.69" height="3.69"/>
	<rect x="50.48" y="3.02" class="st0" width="3.69" height="3.69"/>
	<rect x="34.13" y="3.02" class="st0" width="3.69" height="3.69"/>
	<rect x="16.43" y="3.02" class="st0" width="3.69" height="3.69"/>
	<rect x="21.78" y="3.02" class="st0" width="3.69" height="3.69"/>
	<rect x="27.22" y="3.02" class="st0" width="3.69" height="3.69"/>
	<rect x="10.86" y="3.02" class="st0" width="3.69" height="3.69"/>
	<rect x="3.15" y="3.02" class="st0" width="3.69" height="3.69"/>
	<rect x="3.15" y="9.18" class="st0" width="3.69" height="3.69"/>
	<rect x="15.2" y="14.95" class="st0" width="3.69" height="3.69"/>
	<rect x="21.03" y="14.95" class="st0" width="3.69" height="3.69"/>
	<rect x="26.86" y="14.95" class="st0" width="3.69" height="3.69"/>
	<rect x="32.69" y="14.95" class="st0" width="3.69" height="3.69"/>
	<rect x="38.51" y="14.95" class="st0" width="3.69" height="3.69"/>
	<rect x="44.34" y="14.95" class="st0" width="3.69" height="3.69"/>
	<rect x="50.17" y="14.95" class="st0" width="3.69" height="3.69"/>
	<rect x="56" y="14.95" class="st0" width="3.69" height="3.69"/>
	<rect x="61.83" y="14.95" class="st0" width="3.69" height="3.69"/>
	<rect x="13.38" y="26.48" class="st0" width="3.69" height="3.69"/>
	<rect x="18.95" y="26.48" class="st0" width="3.69" height="3.69"/>
	<rect x="24.51" y="26.48" class="st0" width="3.69" height="3.69"/>
	<rect x="30.08" y="26.48" class="st0" width="3.69" height="3.69"/>
	<rect x="35.64" y="26.48" class="st0" width="3.69" height="3.69"/>
	<rect x="41.2" y="26.48" class="st0" width="3.69" height="3.69"/>
	<rect x="46.77" y="26.5" class="st0" width="3.69" height="3.69"/>
	<rect x="52.33" y="26.48" class="st0" width="3.69" height="3.69"/>
	<rect x="57.89" y="26.48" class="st0" width="3.69" height="3.69"/>
	<rect x="63.46" y="26.48" class="st0" width="3.69" height="3.69"/>
	<rect x="3.15" y="20.72" class="st0" width="5.53" height="3.69"/>
	<rect x="11.02" y="20.72" class="st0" width="3.69" height="3.69"/>
	<rect x="17.14" y="20.72" class="st0" width="3.69" height="3.69"/>
	<rect x="3.15" y="26.48" class="st0" width="7.87" height="3.69"/>
	<rect x="3.15" y="32.25" class="st0" width="3.69" height="3.69"/>
	<rect x="9.17" y="32.25" class="st0" width="3.69" height="3.69"/>
	<rect x="15.19" y="32.25" class="st0" width="3.69" height="3.69"/>
	<rect x="61.56" y="32.25" class="st0" width="3.69" height="3.69"/>
	<rect x="55.86" y="32.25" class="st0" width="3.69" height="3.69"/>
	<rect x="67.58" y="32.25" class="st0" width="3.69" height="3.69"/>
	<rect x="73.7" y="32.25" class="st0" width="3.69" height="3.69"/>
	<rect x="69.5" y="26.48" class="st0" width="7.96" height="3.69"/>
	<rect x="71.93" y="20.72" class="st0" width="5.53" height="3.69"/>
	<rect x="73.16" y="14.95" class="st0" width="4.3" height="3.69"/>
	<rect x="3.15" y="14.95" class="st0" width="4.3" height="3.69"/>
	<rect x="67.65" y="14.95" class="st0" width="3.69" height="3.69"/>
	<rect x="9.37" y="14.95" class="st0" width="3.69" height="3.69"/>
	<rect x="23.26" y="20.72" class="st0" width="3.69" height="3.69"/>
	<rect x="29.39" y="20.72" class="st0" width="3.69" height="3.69"/>
	<rect x="35.51" y="20.72" class="st0" width="3.69" height="3.69"/>
	<rect x="41.63" y="20.72" class="st0" width="3.69" height="3.69"/>
	<rect x="47.76" y="20.72" class="st0" width="3.69" height="3.69"/>
	<rect x="53.88" y="20.72" class="st0" width="3.69" height="3.69"/>
	<rect x="60" y="20.72" class="st0" width="3.69" height="3.69"/>
	<rect x="66.13" y="20.72" class="st0" width="3.69" height="3.69"/>
	<rect x="9.03" y="9.18" class="st0" width="3.69" height="3.69"/>
	<rect x="14.74" y="9.18" class="st0" width="3.69" height="3.69"/>
	<rect x="20.45" y="9.18" class="st0" width="3.69" height="3.69"/>
	<rect x="26.16" y="9.18" class="st0" width="3.69" height="3.69"/>
	<rect x="31.87" y="9.18" class="st0" width="3.69" height="3.69"/>
	<rect x="37.58" y="9.18" class="st0" width="3.69" height="3.69"/>
	<rect x="43.29" y="9.18" class="st0" width="3.69" height="3.69"/>
	<rect x="49" y="9.18" class="st0" width="3.69" height="3.69"/>
	<rect x="54.71" y="9.18" class="st0" width="3.69" height="3.69"/>
	<rect x="60.42" y="9.18" class="st0" width="3.69" height="3.69"/>
	<rect x="66.13" y="9.18" class="st0" width="3.69" height="3.69"/>
	<rect x="113.4" y="9.18" class="st0" width="3.69" height="3.69"/>
	<circle class="st1" cx="98.99" cy="4.87" r="0.39"/>
	<circle class="st1" cx="104.35" cy="4.87" r="0.39"/>
	<circle class="st1" cx="109.71" cy="4.87" r="0.39"/>
	<circle class="st1" cx="115.07" cy="4.87" r="0.39"/>
</g>
<g id="Layer_2">
	<path class="st2" d="M117.76,0H2.48C1.11,0,0,1.1,0,2.44v34.47c0,1.35,1.11,2.44,2.48,2.44h115.28c1.36,0,2.47-1.09,2.47-2.44V2.44
		C120.23,1.1,119.12,0,117.76,0z M119.24,36.91c0,0.81-0.66,1.46-1.48,1.46H2.48c-0.82,0-1.49-0.65-1.49-1.46V2.44
		c0-0.8,0.67-1.46,1.49-1.46h115.28c0.82,0,1.48,0.66,1.48,1.46V36.91z"/>
	<path class="st3" d="M119.24,2.44v34.47c0,0.81-0.66,1.46-1.48,1.46H2.48c-0.82,0-1.49-0.65-1.49-1.46V2.44
		c0-0.8,0.67-1.46,1.49-1.46h115.28C118.58,0.98,119.24,1.64,119.24,2.44z"/>
</g>
</svg>
