<svg id="Layer_1" data-name="Layer 1" xmlns="http://www.w3.org/2000/svg" viewBox="0 0 324.4 250.02"><defs><style>.cls-1{fill:#e25a1c;}.cls-2{fill:#fff;}.cls-3,.cls-4{fill:none;stroke:#e25a1c;stroke-miterlimit:10;}.cls-3{stroke-width:0.75px;}.cls-4{stroke-width:0.25px;}</style></defs><path class="cls-1" d="M219.84,105.34H104.56a2.46,2.46,0,0,0-2.48,2.44v34.47a2.46,2.46,0,0,0,2.48,2.44H219.84a2.46,2.46,0,0,0,2.47-2.44V107.78A2.46,2.46,0,0,0,219.84,105.34Zm1.48,36.91a1.47,1.47,0,0,1-1.48,1.46H104.56a1.47,1.47,0,0,1-1.49-1.46V107.78a1.48,1.48,0,0,1,1.49-1.46H219.84a1.47,1.47,0,0,1,1.48,1.46Z"/><path class="cls-2" d="M221.32,107.78v34.47a1.47,1.47,0,0,1-1.48,1.46H104.56a1.47,1.47,0,0,1-1.49-1.46V107.78a1.48,1.48,0,0,1,1.49-1.46H219.84A1.47,1.47,0,0,1,221.32,107.78Z"/><rect class="cls-3" x="123.67" y="137.59" width="31.55" height="3.69"/><rect class="cls-3" x="199.23" y="131.82" width="3.69" height="3.69"/><rect class="cls-3" x="193.36" y="137.59" width="3.69" height="3.69"/><rect class="cls-3" x="187.92" y="137.59" width="3.69" height="3.69"/><rect class="cls-3" x="187.93" y="131.82" width="3.69" height="3.69"/><rect class="cls-3" x="182.47" y="137.59" width="3.69" height="3.69"/><rect class="cls-3" x="199.23" y="137.59" width="9.04" height="3.69"/><rect class="cls-3" x="204.58" y="131.82" width="3.69" height="3.69"/><rect class="cls-3" x="210.01" y="131.82" width="3.69" height="3.69"/><rect class="cls-3" x="210.01" y="137.59" width="3.69" height="3.69"/><rect class="cls-3" x="215.48" y="131.82" width="3.69" height="9.46"/><rect class="cls-3" x="215.48" y="120.28" width="3.69" height="9.46"/><rect class="cls-3" x="199.23" y="126.05" width="3.69" height="3.69"/><rect class="cls-3" x="204.58" y="126.05" width="3.69" height="3.69"/><rect class="cls-3" x="210.01" y="126.05" width="3.69" height="3.69"/><rect class="cls-3" x="199.23" y="120.28" width="3.69" height="3.69"/><rect class="cls-3" x="204.58" y="120.28" width="3.69" height="3.69"/><rect class="cls-3" x="210.01" y="120.28" width="3.69" height="3.69"/><rect class="cls-3" x="199.23" y="114.51" width="3.69" height="3.69"/><rect class="cls-3" x="204.58" y="114.51" width="3.69" height="3.69"/><rect class="cls-3" x="210.01" y="114.51" width="3.69" height="3.69"/><rect class="cls-3" x="182.53" y="120.28" width="3.69" height="3.69"/><rect class="cls-3" x="187.88" y="120.28" width="3.69" height="3.69"/><rect class="cls-3" x="193.31" y="120.28" width="3.69" height="3.69"/><rect class="cls-3" x="182.53" y="114.51" width="3.69" height="3.69"/><rect class="cls-3" x="187.88" y="114.51" width="3.69" height="3.69"/><rect class="cls-3" x="193.31" y="114.51" width="3.69" height="3.69"/><rect class="cls-3" x="182.53" y="108.36" width="3.69" height="3.69"/><rect class="cls-3" x="187.88" y="108.36" width="3.69" height="3.69"/><rect class="cls-3" x="193.31" y="108.36" width="3.69" height="3.69"/><rect class="cls-3" x="165.05" y="108.36" width="3.69" height="3.69"/><rect class="cls-3" x="170.4" y="108.36" width="3.69" height="3.69"/><rect class="cls-3" x="175.85" y="108.36" width="3.69" height="3.69"/><rect class="cls-3" x="174.09" y="114.51" width="5.46" height="3.69"/><rect class="cls-3" x="159.47" y="108.36" width="3.69" height="3.69"/><rect class="cls-3" x="141.78" y="108.36" width="3.69" height="3.69"/><rect class="cls-3" x="147.13" y="108.36" width="3.69" height="3.69"/><rect class="cls-3" x="152.56" y="108.36" width="3.69" height="3.69"/><rect class="cls-3" x="136.21" y="108.36" width="3.69" height="3.69"/><rect class="cls-3" x="118.52" y="108.36" width="3.69" height="3.69"/><rect class="cls-3" x="123.87" y="108.36" width="3.69" height="3.69"/><rect class="cls-3" x="129.3" y="108.36" width="3.69" height="3.69"/><rect class="cls-3" x="112.94" y="108.36" width="3.69" height="3.69"/><rect class="cls-3" x="105.23" y="108.36" width="3.69" height="3.69"/><rect class="cls-3" x="105.23" y="114.51" width="3.69" height="3.69"/><rect class="cls-3" x="117.28" y="120.28" width="3.69" height="3.69"/><rect class="cls-3" x="123.11" y="120.28" width="3.69" height="3.69"/><rect class="cls-3" x="128.94" y="120.28" width="3.69" height="3.69"/><rect class="cls-3" x="134.77" y="120.28" width="3.69" height="3.69"/><rect class="cls-3" x="140.6" y="120.28" width="3.69" height="3.69"/><rect class="cls-3" x="146.42" y="120.28" width="3.69" height="3.69"/><rect class="cls-3" x="152.25" y="120.28" width="3.69" height="3.69"/><rect class="cls-3" x="158.08" y="120.28" width="3.69" height="3.69"/><rect class="cls-3" x="163.91" y="120.28" width="3.69" height="3.69"/><rect class="cls-3" x="115.47" y="131.82" width="3.69" height="3.69"/><rect class="cls-3" x="121.03" y="131.82" width="3.69" height="3.69"/><rect class="cls-3" x="126.59" y="131.82" width="3.69" height="3.69"/><rect class="cls-3" x="132.16" y="131.82" width="3.69" height="3.69"/><rect class="cls-3" x="137.72" y="131.82" width="3.69" height="3.69"/><rect class="cls-3" x="143.29" y="131.82" width="3.69" height="3.69"/><rect class="cls-3" x="148.85" y="131.83" width="3.69" height="3.69"/><rect class="cls-3" x="154.41" y="131.82" width="3.69" height="3.69"/><rect class="cls-3" x="159.98" y="131.82" width="3.69" height="3.69"/><rect class="cls-3" x="165.54" y="131.82" width="3.69" height="3.69"/><rect class="cls-3" x="105.23" y="126.05" width="5.53" height="3.69"/><rect class="cls-3" x="113.1" y="126.05" width="3.69" height="3.69"/><rect class="cls-3" x="119.22" y="126.05" width="3.69" height="3.69"/><rect class="cls-3" x="105.23" y="131.82" width="7.87" height="3.69"/><rect class="cls-3" x="105.23" y="137.59" width="3.69" height="3.69"/><rect class="cls-3" x="111.25" y="137.59" width="3.69" height="3.69"/><rect class="cls-3" x="117.28" y="137.59" width="3.69" height="3.69"/><rect class="cls-3" x="163.64" y="137.59" width="3.69" height="3.69"/><rect class="cls-3" x="157.94" y="137.59" width="3.69" height="3.69"/><rect class="cls-3" x="169.66" y="137.59" width="3.69" height="3.69"/><rect class="cls-3" x="175.78" y="137.59" width="3.69" height="3.69"/><rect class="cls-3" x="171.58" y="131.82" width="7.96" height="3.69"/><rect class="cls-3" x="174.01" y="126.05" width="5.53" height="3.69"/><rect class="cls-3" x="175.24" y="120.28" width="4.3" height="3.69"/><rect class="cls-3" x="105.23" y="120.28" width="4.3" height="3.69"/><rect class="cls-3" x="169.74" y="120.28" width="3.69" height="3.69"/><rect class="cls-3" x="111.45" y="120.28" width="3.69" height="3.69"/><rect class="cls-3" x="125.35" y="126.05" width="3.69" height="3.69"/><rect class="cls-3" x="131.47" y="126.05" width="3.69" height="3.69"/><rect class="cls-3" x="137.59" y="126.05" width="3.69" height="3.69"/><rect class="cls-3" x="143.72" y="126.05" width="3.69" height="3.69"/><rect class="cls-3" x="149.84" y="126.05" width="3.69" height="3.69"/><rect class="cls-3" x="155.96" y="126.05" width="3.69" height="3.69"/><rect class="cls-3" x="162.09" y="126.05" width="3.69" height="3.69"/><rect class="cls-3" x="168.21" y="126.05" width="3.69" height="3.69"/><rect class="cls-3" x="111.11" y="114.51" width="3.69" height="3.69"/><rect class="cls-3" x="116.82" y="114.51" width="3.69" height="3.69"/><rect class="cls-3" x="122.53" y="114.51" width="3.69" height="3.69"/><rect class="cls-3" x="128.24" y="114.51" width="3.69" height="3.69"/><rect class="cls-3" x="133.95" y="114.51" width="3.69" height="3.69"/><rect class="cls-3" x="139.66" y="114.51" width="3.69" height="3.69"/><rect class="cls-3" x="145.37" y="114.51" width="3.69" height="3.69"/><rect class="cls-3" x="151.08" y="114.51" width="3.69" height="3.69"/><rect class="cls-3" x="156.79" y="114.51" width="3.69" height="3.69"/><rect class="cls-3" x="162.5" y="114.51" width="3.69" height="3.69"/><rect class="cls-3" x="168.21" y="114.51" width="3.69" height="3.69"/><rect class="cls-3" x="215.48" y="114.51" width="3.69" height="3.69"/><circle class="cls-4" cx="201.07" cy="110.21" r="0.39"/><circle class="cls-4" cx="206.43" cy="110.21" r="0.39"/><circle class="cls-4" cx="211.79" cy="110.21" r="0.39"/><circle class="cls-4" cx="217.15" cy="110.21" r="0.39"/></svg>