<svg id="Layer_1" data-name="Layer 1" xmlns="http://www.w3.org/2000/svg" viewBox="0 0 324.4 250.02"><defs><style>.cls-1{fill:#e25a1c;}.cls-2{fill:none;stroke:#e25a1c;stroke-miterlimit:10;stroke-width:0.75px;}</style></defs><path class="cls-1" d="M162.2,106.09a8.14,8.14,0,0,1,7.71,5.58H167a2,2,0,1,0,0,4h3.33v1.91H167a2,2,0,1,0,0,4h3.33v1.94H167a2,2,0,0,0,0,4h2.89a8.12,8.12,0,0,1-15.36,0h2.9a2,2,0,1,0,0-4h-3.32v-1.94h3.32a2,2,0,0,0,0-4h-3.32v-1.9h3.32a2,2,0,0,0,0-4H154.5a8.15,8.15,0,0,1,7.7-5.54m0-.75h0a8.87,8.87,0,0,0-8.68,7h3.89a1.25,1.25,0,0,1,0,2.49h-4.07v3.4h4.07a1.25,1.25,0,0,1,0,2.49h-4.07v3.44h4.07a1.24,1.24,0,1,1,0,2.48h-3.88a8.86,8.86,0,0,0,8.67,7h0a8.85,8.85,0,0,0,8.65-7H167a1.25,1.25,0,0,1,0-2.49h4.08v-3.44H167a1.24,1.24,0,1,1,0-2.48h4.08V114.9H167a1.24,1.24,0,0,1-1.24-1.24h0a1.25,1.25,0,0,1,1.24-1.24h3.9a8.86,8.86,0,0,0-8.68-7.08Z"/><path class="cls-2" d="M173.5,126.67a.71.71,0,1,0-1.42,0c0,4.84-4.25,8.5-9.88,8.5s-9.89-3.66-9.89-8.51a.71.71,0,0,0-1.42,0c0,5.29,4.25,9.36,10.07,9.87v5.67h-2.31v2.48h7.09V142.2h-2.3v-5.67C169.26,136,173.5,132,173.5,126.67Z"/></svg>