<?xml version="1.0" encoding="utf-8"?>
<!-- Generator: Adobe Illustrator 25.1.0, SVG Export Plug-In . SVG Version: 6.00 Build 0)  -->
<svg class="gallery4" version="1.1" xmlns="http://www.w3.org/2000/svg" xmlns:xlink="http://www.w3.org/1999/xlink" x="0px" y="0px"
	 viewBox="0 0 23.36 39.72" style="enable-background:new 0 0 23.36 39.72;" xml:space="preserve">
<style type="text/css">
	.st0{fill:#E25A1C;}
	.st1{fill:#E25A1C;}
</style>
<g id="Bottom">
	<path class="st0" d="M22.98,21.33c0-0.39-0.32-0.71-0.71-0.71c-0.39,0-0.71,0.32-0.71,0.71c0,4.84-4.25,8.5-9.89,8.5
		s-9.89-3.66-9.89-8.51c0-0.39-0.32-0.71-0.71-0.71s-0.71,0.32-0.71,0.71c0,5.29,4.25,9.36,10.06,9.87v5.67h-2.3v2.48h7.09v-2.48
		h-2.3v-5.67C18.74,30.68,22.98,26.62,22.98,21.33z"/>
</g>
<g id="Mic">
	<g>
		<path class="st1" d="M11.68,0.75c3.53,0,6.63,2.3,7.71,5.58h-2.92c-1.1,0-1.99,0.89-1.99,1.99s0.89,1.99,1.99,1.99h3.33v1.91
			h-3.33c-1.1,0-1.99,0.89-1.99,1.99s0.89,1.99,1.99,1.99h3.33v1.94h-3.33c-1.1,0-1.99,0.89-1.99,1.99s0.89,1.99,1.99,1.99h2.88
			c-1.11,3.22-4.2,5.48-7.67,5.48c-3.49,0-6.58-2.27-7.68-5.51h2.9c1.1,0,1.99-0.89,1.99-1.99c0-1.1-0.89-1.99-1.99-1.99H3.57v-1.94
			h3.33c1.1,0,1.99-0.89,1.99-1.99s-0.89-1.99-1.99-1.99H3.57v-1.91h3.33c1.1,0,1.99-0.89,1.99-1.99S7.99,6.3,6.89,6.3H3.98
			C5.07,3.03,8.17,0.75,11.68,0.75 M11.68,0L11.68,0C7.41,0,3.84,3.02,3,7.05h3.89c0.69,0,1.24,0.56,1.24,1.24S7.58,9.53,6.89,9.53
			H2.82v3.41h4.08c0.69,0,1.24,0.56,1.24,1.24c0,0.69-0.56,1.24-1.24,1.24H2.82v3.44h4.08c0.69,0,1.24,0.56,1.24,1.24
			c0,0.69-0.56,1.24-1.24,1.24H3.01c0.85,4.01,4.41,7.01,8.67,7.01h0c4.25,0,7.79-2.99,8.66-6.98h-3.87c-0.69,0-1.24-0.56-1.24-1.24
			s0.56-1.24,1.24-1.24h4.08v-3.44h-4.08c-0.69,0-1.24-0.56-1.24-1.24c0-0.69,0.56-1.24,1.24-1.24h4.08V9.56h-4.08
			c-0.69,0-1.24-0.56-1.24-1.24v0c0-0.69,0.56-1.24,1.24-1.24h3.9C19.54,3.04,15.96,0,11.68,0L11.68,0z"/>
	</g>
</g>
</svg>
