<svg xmlns="http://www.w3.org/2000/svg" viewBox="0 0 23.36 39.72"><defs><style>.cls-1{fill:none;stroke:#e25a1c;stroke-miterlimit:10;stroke-width:0.75px;}.cls-2{fill:#e25a1c;}</style></defs><g id="Stand-2" data-name="Stand"><path class="cls-1" d="M23,21.33a.71.71,0,1,0-1.41,0c0,4.85-4.25,8.5-9.89,8.5s-9.89-3.66-9.89-8.51a.71.71,0,1,0-1.41,0c0,5.29,4.24,9.36,10.06,9.87v5.67H8.13v2.48h7.09V36.86h-2.3V31.19C18.74,30.68,23,26.62,23,21.33Z"/></g><g id="Mic"><path class="cls-2" d="M11.68.75a8.14,8.14,0,0,1,7.71,5.58H16.46a2,2,0,0,0,0,4h3.33v1.91H16.46a2,2,0,0,0,0,4h3.33v1.95H16.46a2,2,0,0,0,0,4h2.89A8.11,8.11,0,0,1,4,22.09H6.89a2,2,0,0,0,0-4H3.57V16.17H6.89a2,2,0,0,0,0-4H3.57V10.28H6.89a2,2,0,1,0,0-4H4A8.15,8.15,0,0,1,11.68.75m0-.75h0A8.87,8.87,0,0,0,3,7.05H6.89a1.24,1.24,0,0,1,0,2.48H2.82v3.41H6.89a1.24,1.24,0,1,1,0,2.48H2.82v3.44H6.89a1.24,1.24,0,0,1,0,2.48H3a8.87,8.87,0,0,0,8.67,7h0a8.87,8.87,0,0,0,8.66-7H16.46a1.24,1.24,0,0,1,0-2.48h4.08V15.45H16.46a1.24,1.24,0,0,1,0-2.48h4.08V9.56H16.46a1.24,1.24,0,0,1-1.24-1.24h0a1.25,1.25,0,0,1,1.24-1.24h3.9A8.86,8.86,0,0,0,11.68,0Z"/></g></svg>
