<svg xmlns="http://www.w3.org/2000/svg" viewBox="0 0 51 39.73"><defs><style>.cls-1{fill:none;stroke:#e25a1c;stroke-miterlimit:10;}</style></defs><g id="stand"><path class="cls-1" d="M.5,27.54h50a0,0,0,0,1,0,0V30a1,1,0,0,1-1,1H1.5a1,1,0,0,1-1-1V27.54A0,0,0,0,1,.5,27.54Z"/><path class="cls-1" d="M15.48,37.1h20a0,0,0,0,1,0,0v1.12a1,1,0,0,1-1,1h-18a1,1,0,0,1-1-1V37.1A0,0,0,0,1,15.48,37.1Z" transform="translate(51 76.33) rotate(180)"/><rect class="cls-1" x="21.57" y="31" width="7.87" height="6.1"/></g><g id="Layer_17" data-name="Layer 17"><rect class="cls-1" x="0.5" y="0.5" width="50" height="30.5" rx="1"/></g></svg>