<svg id="Layer_1" data-name="Layer 1" xmlns="http://www.w3.org/2000/svg" viewBox="0 0 324.4 250.02"><defs><style>.cls-1{fill:none;stroke:#e25a1c;stroke-miterlimit:10;}</style></defs><rect class="cls-1" x="137.2" y="105.34" width="50" height="30.5" rx="1"/><path class="cls-1" d="M137.2,132.38h50a0,0,0,0,1,0,0v2.46a1,1,0,0,1-1,1h-48a1,1,0,0,1-1-1v-2.46a0,0,0,0,1,0,0Z"/><path class="cls-1" d="M152.17,141.94h20a0,0,0,0,1,0,0v1.12a1,1,0,0,1-1,1h-18a1,1,0,0,1-1-1v-1.12A0,0,0,0,1,152.17,141.94Z" transform="translate(324.4 286) rotate(180)"/><rect class="cls-1" x="158.27" y="135.84" width="7.87" height="6.1"/></svg>