<svg xmlns="http://www.w3.org/2000/svg" viewBox="0 0 24.52 39.23"><defs><style>.cls-1{fill:#e25a1c;}</style></defs><g id="Mouse"><path class="cls-1" d="M12.26.75A11.53,11.53,0,0,1,23.77,12.26V27a11.51,11.51,0,0,1-23,0V12.26A11.52,11.52,0,0,1,12.26.75m0-.75A12.26,12.26,0,0,0,0,12.26V27a12.26,12.26,0,0,0,24.52,0V12.26A12.26,12.26,0,0,0,12.26,0Z"/></g><g id="Scroll_Wheel" data-name="Scroll Wheel"><path class="cls-1" d="M12.26,6.9a1.94,1.94,0,0,1,1.93,1.94v4.94a1.93,1.93,0,0,1-3.86,0V8.84A1.93,1.93,0,0,1,12.26,6.9m0-.5A2.43,2.43,0,0,0,9.83,8.84v4.94a2.43,2.43,0,0,0,4.86,0V8.84A2.43,2.43,0,0,0,12.26,6.4Z"/></g><g id="Layer_6" data-name="Layer 6"><path class="cls-1" d="M12.65,6.46V0l-.42,0h-.36V6.45Z"/><path class="cls-1" d="M24.51,11.3v.24H14.35v-.73h10.1A3.86,3.86,0,0,1,24.51,11.3Z"/><path class="cls-1" d="M9.93,10.81v.73H.06v-.36c0-.12,0-.25.05-.37Z"/></g></svg>