<?xml version="1.0" encoding="utf-8"?>
<!-- Generator: Adobe Illustrator 25.1.0, SVG Export Plug-In . SVG Version: 6.00 Build 0)  -->
<svg version="1.1" xmlns="http://www.w3.org/2000/svg" xmlns:xlink="http://www.w3.org/1999/xlink" x="0px" y="0px"
	 viewBox="0 0 24.52 39.23" style="enable-background:new 0 0 24.52 39.23;" xml:space="preserve">
<style type="text/css">
	.st0{fill:#E25A1C;}
</style>
<g id="mouse">
	<g>
		<path class="st0" d="M12.26,0.75c6.35,0,11.51,5.16,11.51,11.51v14.71c0,6.35-5.16,11.51-11.51,11.51
			c-6.35,0-11.51-5.16-11.51-11.51V12.26C0.75,5.91,5.91,0.75,12.26,0.75 M12.26,0L12.26,0C5.49,0,0,5.49,0,12.26v14.71
			c0,6.77,5.49,12.26,12.26,12.26h0c6.77,0,12.26-5.49,12.26-12.26V12.26C24.52,5.49,19.03,0,12.26,0L12.26,0z"/>
	</g>
</g>
<g id="line1">
	<path class="st0" d="M12.65,6.46V0.02L12.23,0c-0.12,0-0.24,0-0.37,0.01v6.44L12.65,6.46z"/>
</g>
<g id="Line2">
	<path class="st0" d="M24.51,11.3v0.24H14.35v-0.73h10.1C24.48,10.97,24.5,11.13,24.51,11.3z"/>
</g>
<g id="line3">
	<path class="st0" d="M9.93,10.81v0.73H0.06v-0.36c0.01-0.12,0.03-0.25,0.05-0.37H9.93z"/>
</g>
<g id="scroll">
	<g>
		<path class="st0" d="M12.26,6.9c1.06,0,1.93,0.87,1.93,1.93v4.94c0,1.06-0.87,1.93-1.93,1.93s-1.93-0.87-1.93-1.93V8.84
			C10.33,7.77,11.19,6.9,12.26,6.9 M12.26,6.4c-1.34,0-2.43,1.09-2.43,2.43v4.94c0,1.34,1.09,2.43,2.43,2.43
			c1.34,0,2.43-1.09,2.43-2.43V8.84C14.69,7.49,13.6,6.4,12.26,6.4L12.26,6.4z"/>
	</g>
</g>
</svg>
