<svg id="Layer_1" data-name="Layer 1" xmlns="http://www.w3.org/2000/svg" viewBox="0 0 324.4 250.02"><defs><style>.cls-1{fill:#e25a1c;}</style></defs><path class="cls-1" d="M162.17,106.15a11.52,11.52,0,0,1,11.51,11.51v14.71a11.51,11.51,0,0,1-23,0V117.66a11.52,11.52,0,0,1,11.51-11.51m0-.75a12.26,12.26,0,0,0-12.26,12.26v14.71a12.26,12.26,0,0,0,24.52,0V117.66a12.26,12.26,0,0,0-12.26-12.26Z"/><path class="cls-1" d="M162.56,111.86v-6.44l-.41,0h-.37v6.44Z"/><path class="cls-1" d="M162.17,112.3a1.93,1.93,0,0,1,1.93,1.93v5a1.93,1.93,0,0,1-3.86,0v-5a1.94,1.94,0,0,1,1.93-1.93m0-.5a2.43,2.43,0,0,0-2.43,2.43v5a2.43,2.43,0,0,0,4.86,0v-5a2.43,2.43,0,0,0-2.43-2.43Z"/><path class="cls-1" d="M174.43,116.69v.24H164.27v-.72h10.1A3.93,3.93,0,0,1,174.43,116.69Z"/><path class="cls-1" d="M159.85,116.21v.72H150v-.35c0-.13,0-.25.05-.37Z"/></svg>