<svg xmlns="http://www.w3.org/2000/svg" viewBox="0 0 51.82 39.19"><defs><style>.cls-1{fill:none;stroke:#e25a1c;stroke-miterlimit:10;stroke-width:0.75px;}</style></defs><g id="wifi"><path class="cls-1" d="M30.11,34.62A4.19,4.19,0,0,1,26,38.81h-.12a4.18,4.18,0,0,1-4.14-4.19,4.31,4.31,0,0,1,.37-1.72,4.2,4.2,0,0,1,7.66,0A4.31,4.31,0,0,1,30.11,34.62Z"/><path class="cls-1" d="M43.5,16.75l-4.21,4.3a22.64,22.64,0,0,0-13.38-4.24,22.65,22.65,0,0,0-13.39,4.24l-4.2-4.3a31.36,31.36,0,0,1,17.59-5.24A31.36,31.36,0,0,1,43.5,16.75Z"/><path class="cls-1" d="M51.23,7.92l-6,5.93A32.58,32.58,0,0,0,25.91,7.74,32.49,32.49,0,0,0,6.64,13.85l-6-5.93A45.15,45.15,0,0,1,25.91.38,45.12,45.12,0,0,1,51.23,7.92Z"/><path class="cls-1" d="M37.54,25.31l-3.67,4a12.15,12.15,0,0,0-8-2.85,12.13,12.13,0,0,0-8,2.85l-3.67-4a19.68,19.68,0,0,1,11.63-3.68A19.72,19.72,0,0,1,37.54,25.31Z"/></g></svg>