<svg id="Layer_1" data-name="Layer 1" xmlns="http://www.w3.org/2000/svg" viewBox="0 0 324.4 250.02"><defs><style>.cls-1{fill:none;stroke:#e25a1c;stroke-miterlimit:10;stroke-width:0.75px;}</style></defs><path class="cls-1" d="M166.39,140a4.19,4.19,0,0,1-4.13,4.2h-.12A4.19,4.19,0,0,1,158,140a4.31,4.31,0,0,1,.37-1.72,4.2,4.2,0,0,1,8,1.72Z"/><path class="cls-1" d="M179.79,122.17l-4.21,4.3a23.25,23.25,0,0,0-26.77,0l-4.2-4.3a32.14,32.14,0,0,1,35.18,0Z"/><path class="cls-1" d="M187.52,113.34l-6.05,5.92a33.49,33.49,0,0,0-38.54,0l-6.05-5.92a46.23,46.23,0,0,1,50.64,0Z"/><path class="cls-1" d="M173.83,130.73l-3.67,4a12.51,12.51,0,0,0-15.92,0l-3.67-4a20.22,20.22,0,0,1,23.26,0Z"/></svg>